<svg width="14" height="14" viewBox="0 0 14 14" fill="none" xmlns="http://www.w3.org/2000/svg">
<path d="M12.9952 11.8493L9.04707 5.26686V1.62398H9.55907C9.69486 1.62398 9.82509 1.57003 9.92111 1.47401C10.0171 1.378 10.0711 1.24777 10.0711 1.11198C10.0711 0.976185 10.0171 0.845955 9.92111 0.749937C9.82509 0.653918 9.69486 0.599976 9.55907 0.599976H4.43907C4.30328 0.599976 4.17305 0.653918 4.07703 0.749937C3.98101 0.845955 3.92707 0.976185 3.92707 1.11198C3.92707 1.24777 3.98101 1.378 4.07703 1.47401C4.17305 1.57003 4.30328 1.62398 4.43907 1.62398H4.95107V5.26686L1.00291 11.8493C0.909793 12.0045 0.859495 12.1817 0.857142 12.3627C0.85479 12.5437 0.900466 12.7221 0.989517 12.8797C1.07857 13.0373 1.20781 13.1685 1.36408 13.2599C1.52034 13.3513 1.69804 13.3996 1.87907 13.4H12.1191C12.3003 13.4 12.4782 13.3519 12.6347 13.2606C12.7913 13.1694 12.9208 13.0382 13.0101 12.8805C13.0993 12.7229 13.1452 12.5443 13.1429 12.3631C13.1407 12.182 13.0904 12.0046 12.9971 11.8493H12.9952ZM5.90211 5.67198C5.95 5.5926 5.97523 5.50163 5.97507 5.40894V1.62398H8.02307V5.40894C8.02291 5.50163 8.04814 5.5926 8.09603 5.67198L10.5421 9.75197C9.77411 9.90365 8.68163 9.83965 7.23011 9.10493C6.21187 8.58973 5.24291 8.31646 4.33603 8.2851L5.90211 5.67198ZM1.87907 12.376L3.70563 9.33085C4.61763 9.21949 5.64547 9.44925 6.76611 10.0169C7.98211 10.632 9.00611 10.8413 9.83811 10.8413C10.2613 10.8431 10.6825 10.7849 11.0893 10.6685L12.1191 12.376H1.87907Z" fill="#109187"/>
</svg>
